<svg width="16" height="16" viewBox="0 0 16 16" fill="none" xmlns="http://www.w3.org/2000/svg">
<path d="M12.6667 0H3.33333C1.49267 0 0 1.49267 0 3.33333V12.6667C0 14.5073 1.49267 16 3.33333 16H12.6667C14.508 16 16 14.5073 16 12.6667V3.33333C16 1.49267 14.508 0 12.6667 0ZM9.68933 13.06C9.41933 13.112 9.33333 12.946 9.33333 12.804V11.3407C9.33333 10.8427 9.15867 10.5187 8.96667 10.3533C10.1547 10.2213 11.4027 9.77 11.4027 7.722C11.4027 7.13933 11.1947 6.66333 10.854 6.29067C10.9087 6.156 11.0913 5.61333 10.8013 4.87933C10.8013 4.87933 10.354 4.736 9.336 5.426C8.90933 5.306 8.45333 5.248 8 5.24533C7.54667 5.24733 7.09067 5.306 6.66467 5.42467C5.646 4.73467 5.198 4.878 5.198 4.878C4.90867 5.61267 5.09133 6.15467 5.14667 6.29C4.80533 6.66333 4.59733 7.13867 4.59733 7.72133C4.59733 9.764 5.842 10.222 7.02733 10.3573C6.87467 10.4907 6.73667 10.7253 6.68867 11.0707C6.384 11.2067 5.61267 11.442 5.13667 10.6267C5.13667 10.6267 4.85467 10.1147 4.31867 10.0767C4.31867 10.0767 3.79867 10.07 4.282 10.4013C4.282 10.4013 4.632 10.5653 4.87467 11.1813C4.87467 11.1813 5.18333 12.1333 6.66667 11.8107V12.8033C6.66667 12.944 6.58067 13.1093 6.31467 13.06C4.19467 12.3553 2.66667 10.356 2.66667 8C2.66667 5.054 5.05467 2.66667 8 2.66667C10.9453 2.66667 13.3333 5.054 13.3333 8C13.3333 10.3553 11.8073 12.354 9.68933 13.06Z" fill="#757185"/>
</svg>
